<?xml version="1.0" standalone="no"?>
<!DOCTYPE svg PUBLIC "-//W3C//DTD SVG 1.1//EN" "http://www.w3.org/Graphics/SVG/1.1/DTD/svg11.dtd" >
<svg xmlns="http://www.w3.org/2000/svg">
<metadata></metadata>
<defs>
<font id="rockwell-boldregular" horiz-adv-x="1045" >
<font-face units-per-em="2048" ascent="1638" descent="-410" />
<missing-glyph horiz-adv-x="547" />
<glyph horiz-adv-x="0" />
<glyph unicode="&#xd;" horiz-adv-x="0" />
<glyph unicode=" "  horiz-adv-x="547" />
<glyph unicode="&#x09;" horiz-adv-x="547" />
<glyph unicode="&#xa0;" horiz-adv-x="547" />
<glyph unicode="!" horiz-adv-x="408" d="M53 0h320v352h-320v-352zM53 1137l80 -615h160l86 629v334h-326v-348z" />
<glyph unicode="&#x22;" horiz-adv-x="772" d="M17 772l36 4q120 11 184.5 52t92 126t27.5 234v297h-332v-352h143q8 -22 8 -45q0 -62 -47.5 -108t-111.5 -58v-150zM416 781h54q153 0 216.5 115t63.5 280v309h-334v-352h152q-3 -111 -33 -150.5t-119 -48.5v-153z" />
<glyph unicode="$" horiz-adv-x="996" d="M8 1082q0 -156 93 -266.5t291 -188.5q143 -60 204.5 -117t61.5 -133q0 -70 -47.5 -118t-120.5 -48q-100 0 -151 68q-50 67 -60 213h-232v-492h232v107q35 -48 57 -66.5t72 -40.5v-211h127v174q88 4 145 14t98 28.5t76 50.5q69 61 106 154q36 94 36 198q0 112 -45.5 197 t-120 145.5t-141.5 96.5q-66 36 -224 116q-79 40 -113 79t-34 95q0 61 39.5 98t107.5 37q179 0 209 -229h228l-1 432h-231v-92q-26 36 -51 55t-84 47v160h-127v-139q-169 -13 -244 -72q-72 -50 -114 -146t-42 -206z" />
<glyph unicode="%" horiz-adv-x="1094" d="M4 1125q0 -201 66 -308q65 -106 188 -106q127 0 200 109t73 296q0 189 -69 293.5t-196 104.5q-119 0 -190 -106q-72 -105 -72 -283zM127 -4l101 -56l254 521l505 1032l-116 56l-246 -519zM201 1094q0 264 70 264q71 0 71 -237q0 -119 -20 -186q-20 -66 -56 -66 q-65 0 -65 225zM568 361q0 -194 65 -294q66 -100 191 -100q239 0 270 386q0 200 -68 307.5t-186 107.5q-82 0 -144 -50.5t-95 -142.5t-33 -214zM764 340q0 275 72 275q65 0 65 -250q0 -114 -18.5 -180t-50.5 -66q-68 0 -68 221z" />
<glyph unicode="&#x26;" horiz-adv-x="1456" d="M4 416q0 -129 63 -233q63 -103 174 -161.5t249 -58.5q66 0 126.5 16.5t109.5 43t82 48.5t134 95l123 -166h398v233h-168l-168 154q71 98 101 149t67 142h168v213h-326q-18 -85 -48 -146t-102 -167l-226 287q138 94 190.5 164.5t52.5 158.5q0 75 -29.5 133.5t-80.5 98.5 q-50 39 -114 59t-133 20q-96 0 -181.5 -37t-138 -110.5t-52.5 -175.5q0 -136 98 -273q-122 -75 -197 -135t-123.5 -147t-48.5 -205zM305 496q0 62 39.5 114t149.5 130l301 -379q-52 -56 -119 -92q-66 -36 -123 -36q-61 0 -119 38q-57 37 -93 98t-36 127zM545 1217 q0 49 30.5 75.5t76.5 26.5q45 0 79 -28t34 -78q0 -52 -27 -87.5t-103 -91.5q-90 102 -90 183z" />
<glyph unicode="'" horiz-adv-x="361" d="M12 776h31q161 0 234 90.5t73 288.5v334h-338v-360h152q0 -93 -33 -142t-119 -61v-150z" />
<glyph unicode="(" horiz-adv-x="545" d="M4 752q0 -180 63.5 -341.5t187 -296t298.5 -233.5v216q-85 65 -137 151q-51 86 -75 205q-23 118 -23 282q0 163 23 280q24 117 75 205t137 159v208q-168 -76 -292 -203.5t-190.5 -290.5t-66.5 -341z" />
<glyph unicode=")" horiz-adv-x="545" d="M-8 97v-216q132 71 235 166q103 93 173 204q71 110 107 235.5t36 261.5q0 138 -36.5 263.5t-108.5 235t-174 196.5t-228 144v-208q82 -70 133 -159q51 -88 75 -205t24 -275q0 -213 -50 -380.5t-186 -262.5z" />
<glyph unicode="*" horiz-adv-x="957" d="M-8 1133l223 -78q72 22 123 25q24 0 58 -7q-18 -44 -48.5 -64t-107.5 -38l-137 -190l188 -146l145 189q0 116 41 174q18 -21 27.5 -48t14.5 -56t12 -70l135 -189l193 146l-133 174q-62 20 -98.5 44t-67.5 74q51 9 73 9q55 0 109 -27l225 78l-74 221l-227 -94q-5 -3 -9 -8 t-5 -5q-41 -38 -57 -47t-52 -12q0 95 62 145l-1 246h-247v-246q25 -20 37.5 -51t21.5 -98q-42 13 -62.5 28.5t-62.5 63.5l-229 78z" />
<glyph unicode="," horiz-adv-x="361" d="M12 0h152q-3 -101 -36.5 -145.5t-115.5 -53.5v-154q119 0 193 37t110 114q35 78 35 202v357h-338v-357z" />
<glyph unicode="-" horiz-adv-x="588" d="M13 412h555v278h-555v-278z" />
<glyph unicode="." horiz-adv-x="361" d="M12 0h338v357h-338v-357z" />
<glyph unicode="/" horiz-adv-x="996" d="M-4 -88h262l277 610l465 1039h-258l-277 -610z" />
<glyph unicode="0" horiz-adv-x="996" d="M4 713q0 -174 33 -312.5t96 -233.5q64 -96 156 -146q93 -50 209 -50q118 0 210 50t155 147t95.5 240t32.5 327q0 245 -54 418q-55 174 -161 263q-106 90 -258 90q-120 0 -215 -53q-94 -53 -162 -156t-102 -251q-35 -147 -35 -333zM342 793q0 163 16 264.5t51.5 150 t92.5 48.5q60 0 94.5 -48t50 -153.5t15.5 -286.5q0 -215 -13.5 -333t-45 -168t-89.5 -50q-65 0 -103 55q-37 55 -53 178.5t-16 342.5z" />
<glyph unicode="1" horiz-adv-x="721" d="M-4 1110v236q143 0 209 34q65 35 133 144h201v-1290h190v-234h-725v234h205v876h-213z" />
<glyph unicode="2" horiz-adv-x="957" d="M-8 0q14 149 38.5 252.5t73.5 190.5q48 88 133 181q85 94 222 216q85 80 117 132q33 52 33 122q0 56 -25.5 93t-61.5 54.5t-67 17.5q-50 0 -86.5 -38.5t-45.5 -103.5q-5 -43 -5 -171l-297 17q10 140 34.5 228t73.5 151q64 82 157 123q94 41 198 41q116 0 222 -50.5 t171 -145.5q66 -96 66 -220q0 -137 -72 -232q-33 -43 -90.5 -95.5t-123.5 -108t-136.5 -114.5t-100.5 -91q-79 -82 -106 -207h397v199h244v-441h-963z" />
<glyph unicode="3" horiz-adv-x="996" d="M0 441l266 43q15 -88 30.5 -140t56 -89.5t112.5 -37.5q87 0 133.5 62t46.5 149q0 57 -22 107q-21 51 -63 82q-29 22 -50.5 26.5t-89.5 4.5h-43v250q96 1 130 13.5t62 43.5q51 55 51 147q0 157 -147 157q-61 0 -84 -18t-38 -53q-16 -42 -33 -133l-277 22q5 103 37 183.5 t90 135t140 83.5q82 27 186 27q132 0 232.5 -47.5t154 -134t53.5 -199.5q0 -122 -53 -204.5t-169 -139.5q143 -59 205 -139q62 -79 62 -206q0 -139 -63 -247t-178.5 -167.5t-264.5 -59.5q-141 0 -246.5 57.5t-164 166t-62.5 255.5z" />
<glyph unicode="4" horiz-adv-x="996" d="M-16 635l74 -231h510v-170h-184l-1 -234h617v234h-129v170h129v215h-133v899h-271zM220 619l343 536l5 -536h-348z" />
<glyph unicode="5" horiz-adv-x="996" d="M-4 396l266 36q21 -112 68 -161.5t139 -49.5q92 4 135 65t43 185q0 73 -23 130t-63.5 87.5t-91.5 30.5q-56 0 -96 -28t-82 -97l-221 113l41 768h807v-361h-211v117h-385l-17 -366q55 55 109 80.5t139 25.5q125 0 222 -59t150.5 -167.5t53.5 -248.5q0 -160 -62.5 -280 t-178 -185t-269.5 -65q-122 0 -222 45q-99 45 -161 126q-62 86 -90 259z" />
<glyph unicode="6" horiz-adv-x="996" d="M12 744q0 191 52 368t172 294.5t309 117.5q125 0 222.5 -49t154.5 -139t65 -207l-288 -47q-28 105 -66 149.5t-102 44.5q-98 0 -146 -104t-51 -324q86 64 142 88q57 23 128 23q115 0 202 -57.5t134 -163t47 -246.5q0 -152 -57 -270t-161.5 -182.5t-237.5 -64.5 q-123 0 -220 52t-163.5 151.5t-101 242.5t-34.5 323zM338 635q0 -206 45 -305.5t139 -99.5q82 0 126 66.5t44 162.5q0 101 -48.5 177t-133.5 76q-52 0 -87.5 -18.5t-84.5 -58.5z" />
<glyph unicode="7" horiz-adv-x="905" d="M4 1006v469h906v-186q-102 -154 -179.5 -329t-120.5 -361q-42 -186 -42 -365h188v-234h-723v234h199q43 316 128 552q101 280 261 449h-398v-229h-219z" />
<glyph unicode="8" horiz-adv-x="996" d="M0 391q0 -130 61.5 -224.5t176.5 -144.5q116 -51 272 -51q249 0 357 117q133 116 133 299q0 78 -26 153q-25 75 -74 137q-50 63 -115 99q84 42 131 132t47 208q0 127 -63.5 217t-166.5 135.5t-221 45.5q-120 0 -229 -47.5t-175.5 -140t-66.5 -220.5q0 -110 47 -195.5 t131 -134.5q-77 -46 -126 -101.5t-71 -124.5t-22 -159zM305 432q0 90 50.5 158t142.5 68q95 0 147 -68.5t52 -161.5q0 -91 -52 -158t-147 -67q-92 0 -142.5 67.5t-50.5 161.5zM340 1084q0 79 42 139.5t116 60.5q78 0 121 -57.5t43 -138.5q0 -82 -43.5 -140t-124.5 -58 q-74 0 -114 57t-40 137z" />
<glyph unicode="9" horiz-adv-x="996" d="M8 998q0 154 57 273q56 120 161 185q104 66 239 66q163 0 278 -92q116 -92 176 -267t60 -419q0 -179 -35.5 -322.5t-105.5 -243.5q-69 -101 -168 -154t-225 -53q-91 0 -166 26q-75 28 -131 79q-57 52 -90.5 124t-44.5 169l280 39q32 -108 66 -147q35 -40 102 -40 q66 0 106.5 42t61.5 132q20 91 28 250q-82 -65 -139.5 -90t-126.5 -25q-114 0 -201 58.5t-134.5 164t-47.5 245.5zM309 1039q0 -119 47 -188.5t126 -69.5q57 0 94.5 20t76.5 59q0 141 -19.5 230t-62.5 132q-42 41 -110 41q-72 0 -112 -58q-40 -60 -40 -166z" />
<glyph unicode=":" horiz-adv-x="408" d="M57 0h334v356h-334v-356zM57 703h334v354h-334v-354z" />
<glyph unicode=";" horiz-adv-x="408" d="M57 0h154q-1 -70 -13 -108.5t-44 -59.5t-97 -35v-154h37q155 0 226 95.5t71 302.5v315h-334v-356zM57 703h334v352h-334v-352z" />
<glyph unicode="&#x3c;" d="M-17 549l351 -506h301l-349 510l353 490h-297zM403 535l357 -492h295l-348 506l354 494h-293z" />
<glyph unicode="&#x3e;" d="M-17 43h275l385 506l-352 494h-296l351 -508zM407 43h279l375 492l-350 508h-296l353 -512z" />
<glyph unicode="?" horiz-adv-x="996" d="M-4 1073h305q4 108 42 172t139 64q93 0 140.5 -51.5t47.5 -147.5q0 -101 -54 -147q-54 -48 -139 -48q-61 0 -124 23l8 -411h166l26 156q115 9 177.5 24.5t113.5 44.5q152 104 152 334q0 135 -61 236t-173.5 155.5t-263.5 54.5q-144 0 -259 -53.5t-179 -148.5t-64 -216 v-41zM271 0h338v357h-338v-357z" />
<glyph unicode="A" horiz-adv-x="1592" d="M13 0h673v237h-168l74 267h424l61 -267h-172v-237h674v237h-135l-311 994h176v244h-1008v-244h181l-330 -994h-139v-237zM652 707l155 569l150 -569h-305z" />
<glyph unicode="B" horiz-adv-x="1270" d="M-4 0h856q86 0 159 30t127 86q55 55 84 131q30 76 30 165q0 138 -59 224q-60 87 -197 145q96 31 150 114t54 195q0 116 -48 203t-137.5 134.5t-207.5 47.5h-811v-244h164v-993h-164v-238zM531 233v408h155q83 0 131 -63t48 -146q0 -80 -46 -139.5t-129 -59.5h-159z M531 880v355h121q80 0 126 -53t46 -123q0 -73 -46 -125q-45 -54 -126 -54h-121z" />
<glyph unicode="C" horiz-adv-x="1456" d="M17 744q0 173 54 317q53 145 153 249t239 160q139 54 305 54q93 0 163 -15q52 -11 96 -32t79 -47t69 -60v116l228 -1v-518h-244q-102 296 -364 296q-118 0 -205 -64.5t-132.5 -186.5t-45.5 -285q0 -114 26.5 -205.5t77 -155t124.5 -96t167 -32.5q145 0 237 92 q92 93 144 297l275 -135q-31 -123 -93 -221t-151 -166q-88 -67 -201 -102q-112 -36 -242 -36q-168 0 -309 55q-140 54 -241.5 158t-155 247t-53.5 317z" />
<glyph unicode="D" horiz-adv-x="1456" d="M-13 0v238h164v993h-164v244h708q292 0 460 -109q92 -58 159 -155.5t102.5 -222t35.5 -265.5q0 -166 -46 -300.5t-134 -229t-213.5 -144t-282.5 -49.5h-789zM522 230h144q143 0 235 61q92 62 132 184q32 97 32 232q0 85 -15 167q-16 83 -43.5 148.5t-64.5 106.5 q-63 60 -147 87q-52 17 -108.5 22t-164.5 5v-1013z" />
<glyph unicode="E" horiz-adv-x="1227" d="M8 0v238h160v993h-160v244h1205v-473h-267v233h-407v-366h342v-238h-342v-397h407v237h267v-471h-1205z" />
<glyph unicode="F" horiz-adv-x="1227" d="M8 0v238h160v993h-160v244h1211v-461h-264v217h-416v-362h309v-238h-309v-393h182v-238h-713z" />
<glyph unicode="G" horiz-adv-x="1592" d="M24 713q0 183 54.5 332t157.5 256q102 108 245.5 164.5t317.5 56.5q146 0 251 -36q106 -37 181 -116v116l232 -1v-512h-254q-50 126 -132 195q-102 87 -253 87q-132 0 -226 -71t-141.5 -187t-47.5 -248q0 -99 28 -194q28 -93 82.5 -168t134.5 -117q79 -44 182 -44 q129 0 222.5 77.5t113.5 196.5h-254v240h653q0 -222 -54 -351q-54 -134 -156 -229t-245 -146t-317 -51q-227 0 -403.5 94t-274 265t-97.5 391z" />
<glyph unicode="H" horiz-adv-x="1456" d="M-4 0h662v237h-131v429h403v-429h-137v-237h670v237h-166v994h166v244h-668v-244h135v-333h-403v333h135v244h-666v-244h160v-994h-160v-237z" />
<glyph unicode="I" horiz-adv-x="682" d="M-4 0h694v238h-163v993h163v244h-694v-244h160v-993h-160v-238z" />
<glyph unicode="J" horiz-adv-x="721" d="M-86 -162q55 -11 99 -11q59 0 100 26q40 27 57.5 90t17.5 176v1112h-184v244h717v-243h-168v-1211q0 -218 -80 -318q-131 -166 -381 -166q-85 0 -178 22v279z" />
<glyph unicode="K" horiz-adv-x="1542" d="M8 0h687v238h-156v993h156v244h-687v-244h160v-993h-160v-238zM559 768l416 -530h-160v-238h723v238h-147l-461 594l395 399h168v244h-645v-244h156z" />
<glyph unicode="L" horiz-adv-x="1227" d="M8 0v238h160v993h-160v244h699v-244h-168v-997h432v456h242v-690h-1205z" />
<glyph unicode="M" horiz-adv-x="1999" d="M-8 0v238h160v993h-160v244h647l336 -1000l358 1000h678v-244h-163v-993h163v-238h-698v238h160v987l-457 -1225h-158l-458 1247v-1009h153v-238h-561z" />
<glyph unicode="N" horiz-adv-x="1501" d="M4 0v238h160v993h-160v244h572l518 -987v743h-156v244h568v-244h-164v-1231h-330l-600 1141v-903h156v-238h-564z" />
<glyph unicode="O" horiz-adv-x="1592" d="M16 727q0 -171 55 -313q55 -141 156 -243q102 -102 244.5 -157t313.5 -55q176 0 321 55q146 54 250 157.5t159.5 248.5t55.5 320q0 172 -55 316t-158 247t-246.5 159t-316.5 56q-171 0 -314.5 -57t-247.5 -163q-104 -105 -160.5 -251t-56.5 -320zM405 742q0 132 45 249 q46 117 135 189t214 72q86 0 156.5 -37t120.5 -105t77 -163t27 -212q0 -119 -25 -215q-26 -95 -74.5 -162t-118 -102t-159.5 -35q-125 0 -215.5 74t-136.5 194t-46 253z" />
<glyph unicode="P" horiz-adv-x="1270" d="M0 0h711v237h-176v298h229q137 0 252 63t182.5 175t67.5 249q0 105 -34 188q-33 84 -96 143t-152 90.5t-195 31.5h-789v-244h164v-994h-164v-237zM535 780v463h139q65 0 112 -28t73 -79.5t26 -121.5q0 -74 -26.5 -126.5t-78 -80t-122.5 -27.5h-123z" />
<glyph unicode="Q" horiz-adv-x="1592" d="M21 731q0 172 58 317q57 146 163 251t252.5 162t320.5 57q168 0 307 -55q139 -57 239 -160.5t153 -246.5q53 -142 53 -316q0 -90 -15.5 -176t-45.5 -163q-31 -76 -75 -141q-43 -65 -102 -118q-64 -55 -152.5 -95t-209.5 -68q132 -80 291 -80q67 0 103 4l-95 -235 q-44 -4 -66 -4q-61 0 -118 14q-84 20 -181 76q-79 44 -115 56t-80 12q-58 0 -99 -19q-40 -19 -134 -90l-122 150q116 111 204 116q-179 63 -299 167q-119 103 -177 249t-58 336zM416 740q0 -153 46 -270t133 -181q86 -63 200 -63q90 0 161.5 33t121.5 97t77 156 q25 92 25 207q0 160 -48 281q-47 121 -135 186q-87 65 -202 65q-89 0 -158.5 -35t-118.5 -101t-75.5 -162.5t-26.5 -212.5z" />
<glyph unicode="R" horiz-adv-x="1403" d="M-4 0v238h160v993h-160v244h875q88 0 160 -28.5t124 -82.5t80 -128q27 -73 27 -164q0 -99 -33 -178.5t-93 -130t-136 -60.5l247 -465h164v-238h-420l-317 635h-147v-397h163v-238h-694zM527 881h155q96 0 146.5 44.5t50.5 129.5q0 78 -46 129q-45 51 -116 51h-190v-354z " />
<glyph unicode="S" horiz-adv-x="996" d="M4 1086q0 120 50.5 216t138.5 150q89 54 198 54q93 0 166.5 -33.5t111.5 -97.5v100h228v-433h-228q-13 112 -67.5 171t-142.5 59q-64 0 -102.5 -39t-38.5 -100q0 -59 40 -102t136 -85q162 -72 254 -126.5t145 -112.5t75.5 -128.5t22.5 -170.5q0 -101 -29 -183t-84.5 -141 t-133 -90t-172.5 -31q-195 0 -293 144v-107h-232v492h232q0 -134 53.5 -206.5t153.5 -72.5q70 0 119 50t49 118t-49 119q-24 26 -76 56t-119 62.5t-129.5 65t-102.5 59.5q-93 66 -133.5 147t-40.5 196z" />
<glyph unicode="T" horiz-adv-x="1270" d="M8 885v590h1254v-586h-246v346h-197v-997h197v-238h-776v238h212v997h-212v-350h-232z" />
<glyph unicode="U" horiz-adv-x="1364" d="M8 1231v244h662v-244h-131v-756q0 -99 19 -155t65 -79.5t127 -23.5q77 0 122 23.5t63.5 79.5t18.5 155v756h-130v244h536v-243l-168 -1v-760q0 -129 -16 -209t-53 -133q-42 -55 -107 -95.5t-144.5 -61t-168.5 -20.5q-157 0 -284 56t-183 149q-64 111 -64 308v766h-164z " />
<glyph unicode="V" horiz-adv-x="1403" d="M0 1231v244h647v-244h-153l219 -840l221 840h-149v244h622v-243h-141l-414 -1232h-307l-408 1231h-137z" />
<glyph unicode="W" horiz-adv-x="2048" d="M12 1231v244h616v-244h-135l193 -819l223 819h-115l1 244h530v-244h-116l194 -795l232 795h-138v244h543v-243h-131l-383 -1232h-279l-210 832l-230 -832h-276l-382 1231h-137z" />
<glyph unicode="X" horiz-adv-x="1403" d="M-4 0h600v238h-119l193 284l197 -284h-121v-238h665v238h-125l-376 510l356 483h145v244h-608v-244h127l-180 -254l-174 254h119v244h-699v-244h150l360 -475l-379 -518h-131v-238z" />
<glyph unicode="Y" horiz-adv-x="1364" d="M-4 1231h127l363 -657v-336h-185v-238h746v238h-185v336l365 657h145v244h-565v-244h119l-209 -375l-182 375h108v244h-647v-244z" />
<glyph unicode="Z" horiz-adv-x="1133" d="M4 0v234l695 1009h-406v-276h-236v508h1066v-211l-707 -1026h469v289h238v-527h-1119z" />
<glyph unicode="[" horiz-adv-x="545" d="M53 -88h500v234h-215v145v1034h215v236h-500v-610v-1039z" />
<glyph unicode="]" horiz-adv-x="545" d="M-4 -88h498v610v1039h-498v-236h213v-141v-1038h-213v-234z" />
<glyph unicode="_" horiz-adv-x="858" d="M-8 -266v-50h883v50h-883z" />
<glyph unicode="`" horiz-adv-x="223" d="M-305 1506l305 -338h197l-205 338h-297z" />
<glyph unicode="a" horiz-adv-x="1094" d="M17 307q0 100 48 178t134.5 121t196.5 43q59 0 105 -9.5t146 -45.5q0 100 -10 137.5t-44 68.5q-54 50 -130 50q-114 0 -184 -98l-246 49q49 95 111 152t148.5 82.5t209.5 25.5q217 0 330.5 -87.5t113.5 -255.5v-484h136v-234h-435v101q-118 -111 -292 -111 q-90 0 -167.5 36t-124 107.5t-46.5 173.5zM326 316q0 -50 31 -86q30 -35 88 -35q95 0 198 100v92q-81 51 -112.5 62.5t-69.5 11.5q-62 0 -99 -44q-36 -44 -36 -101z" />
<glyph unicode="b" horiz-adv-x="1180" d="M8 0h453v127q62 -85 120 -116.5t152 -31.5q125 0 222 68q96 66 148 186.5t52 276.5q0 116 -29.5 215.5t-84 172.5t-130 113t-165.5 40q-84 0 -150 -37q-66 -36 -135 -119v580h-453v-240h138v-1001h-138v-234zM452 508q0 74 23 140q24 65 69 105q46 40 110 40 q58 0 102 -36q45 -35 68.5 -100t23.5 -149q0 -131 -51 -205q-51 -73 -143 -73q-64 0 -109.5 39t-69.5 103q-23 64 -23 136z" />
<glyph unicode="c" d="M13 535q0 -159 69.5 -285t194 -196.5t282.5 -70.5q122 0 219 40q98 39 166 115q68 77 103 186l-252 112q-46 -101 -98 -143.5t-134 -42.5q-104 0 -162 77.5t-58 184.5q0 73 27 138q27 66 81 106q54 41 129 41q85 0 140 -42.5t91 -131.5h218l-1 432h-221v-84 q-75 54 -136 74t-149 20q-144 0 -261 -68.5t-182.5 -189.5t-65.5 -272z" />
<glyph unicode="d" horiz-adv-x="1180" d="M13 508q0 102 27 199q26 98 79 175.5t133 123t180 45.5q65 0 112 -15q57 -18 95.5 -57t70.5 -88v344h-142v240h460v-1241h140v-235h-451v128q-47 -56 -90 -88.5t-91 -46.5q-47 -13 -112 -13q-130 0 -224 75q-93 75 -140 196t-47 258zM322 508q0 -113 54 -196 q54 -82 151 -82q87 0 138.5 82t51.5 219q0 116 -53 189t-137 73q-66 0 -112.5 -40t-68.5 -105q-24 -66 -24 -140z" />
<glyph unicode="e" d="M16 508q0 162 66.5 290t184.5 199.5t268 71.5q110 0 202 -38q91 -40 156 -112.5t100 -174.5q23 -66 29 -124t6 -168h-711q11 -76 42 -132q31 -55 80 -84t110 -29q71 0 118 30t93 103l260 -82q-67 -145 -187.5 -216t-293.5 -71q-117 0 -214.5 38t-166.5 109t-105.5 170 t-36.5 220zM325 635h386q-9 92 -60 147q-51 53 -133 53t-133 -54q-53 -55 -60 -146z" />
<glyph unicode="f" horiz-adv-x="588" d="M-8 0v234h141v573h-141v236h150q-7 50 -7 106q0 152 70 246q53 65 134 99t171 34q100 0 187 -41.5t139 -120.5l-236 -166q-23 62 -43 85q-21 24 -51 24q-33 0 -42 -30q-9 -29 -9 -236h145v-236h-145v-573h145v-234h-608z" />
<glyph unicode="g" horiz-adv-x="1180" d="M16 522q0 154 55.5 278.5t154 194.5t219.5 70q86 0 159 -41t117 -117v136h455v-237h-144v-727q0 -135 -15 -201.5t-56 -120.5q-65 -86 -181 -130q-116 -43 -274 -43q-261 0 -437 125l163 190q131 -71 270 -71q156 0 209 109q22 60 22 217q-56 -87 -115.5 -120.5 t-158.5 -33.5q-137 0 -237 62t-153 179.5t-53 280.5zM342 525q0 -139 51 -213t146 -74q86 0 134 71t48 201q0 93 -22.5 160.5t-65.5 101.5t-102 34h-2q-89 0 -137 -74q-50 -75 -50 -207z" />
<glyph unicode="h" horiz-adv-x="1180" d="M4 0h605v234h-140v473q113 63 170 63q82 0 82 -108v-662h459v234h-139l-4 522q0 143 -73 222t-204 79q-157 0 -295 -135v553h-452v-240h137v-1001h-146v-234z" />
<glyph unicode="i" horiz-adv-x="588" d="M0 0h592v234l-139 -1v809h-453v-235h137v-573h-137v-234zM129 1338q0 -72 46.5 -125.5t129.5 -53.5q84 0 131.5 56t47.5 129q0 74 -46 127t-129 53t-131.5 -55.5t-48.5 -130.5z" />
<glyph unicode="j" horiz-adv-x="498" d="M-94 -166q98 0 122.5 3.5t45.5 14.5q30 17 42.5 62t12.5 129v764h-137v236h453v-1022q0 -98 -9 -161q-9 -62 -31 -105t-63 -83q-111 -105 -305 -105h-131v267zM119 1342q0 77 46 133.5t128 56.5t127 -54t45 -130q0 -75 -47.5 -132.5t-130.5 -57.5q-80 0 -124 55.5 t-44 128.5z" />
<glyph unicode="k" horiz-adv-x="1227" d="M13 0h587v234h-135v280l424 -514h334v234h-141l-275 327l291 279h117v203h-615v-203h189l-328 -297v932h-448v-240h137v-1001h-137v-234z" />
<glyph unicode="l" horiz-adv-x="588" d="M0 0v234h137v1001h-137v240h453v-1241h139v-234h-592z" />
<glyph unicode="m" horiz-adv-x="1725" d="M0 0v234h137v573h-137v236h455v-117q64 61 143 96t156 35q158 0 242 -143q108 87 172 117t145 30q123 0 196.5 -79.5t73.5 -212.5v-535h142v-234h-435v645q0 144 -110 144q-36 0 -67.5 -15t-88.5 -67v-473h135v-234h-442v645q0 144 -104 144q-68 0 -158 -82v-473h137 v-234h-592z" />
<glyph unicode="n" horiz-adv-x="1180" d="M13 0h591v234h-139v473q80 69 164 69q100 0 100 -122v-654h443v234h-140v510q0 148 -74 230.5t-202 82.5q-151 0 -291 -131v117h-452v-236h137v-573h-137v-234z" />
<glyph unicode="o" d="M8 514q0 155 68 281t185.5 198t260.5 72t261 -71t186 -194.5t68 -272.5q0 -154 -68 -279.5t-187 -197t-264 -71.5q-147 0 -263.5 69t-181.5 191t-65 275zM330 531q0 -164 60 -238q49 -59 137 -59q99 0 145 77q41 69 41 197q0 147 -49 224.5t-142 77.5h-2 q-91 0 -140.5 -73.5t-49.5 -205.5z" />
<glyph unicode="p" horiz-adv-x="1180" d="M8 -183v-233h596v233h-139v320q65 -77 130.5 -109t154.5 -32q99 0 176.5 44t129.5 119t77.5 170t25.5 196q0 139 -47 263q-48 125 -143 201t-227 76q-89 0 -154.5 -35t-126.5 -116v129h-453v-236h138v-990h-138zM452 522q0 116 56.5 202.5t153.5 86.5q86 0 136 -74 t50 -202q0 -84 -23.5 -149t-68.5 -100q-44 -36 -102 -36q-64 0 -110 39q-45 38 -69 100q-23 62 -23 133z" />
<glyph unicode="q" horiz-adv-x="1180" d="M25 522q0 -155 52 -275t148 -185.5t220 -65.5q96 0 159 34.5t109 115.5v-329h-137v-233h596v233h-135v990h135v236h-451v-129q-70 82 -134.5 114.5t-154.5 32.5q-117 0 -210.5 -68t-145 -191t-51.5 -280zM325 537q0 113 51.5 193.5t145.5 80.5q96 0 150.5 -86.5 t54.5 -202.5q0 -110 -52 -191t-144 -81q-96 0 -150 85q-56 85 -56 202z" />
<glyph unicode="r" horiz-adv-x="819" d="M13 0v234h137v573h-137v236h428v-215q47 100 90 150q44 49 107.5 69t172.5 22v-317q-110 -6 -156 -20t-96 -57q-49 -48 -71 -127q-1 -4 -5.5 -20.5t-9 -53.5t-6.5 -90q-2 -54 -2 -150h189v-234h-641z" />
<glyph unicode="s" horiz-adv-x="957" d="M20 735q0 101 54 176t140 113.5t182 38.5q146 0 247 -77v57h228v-316h-228q-34 71 -79 96t-132 25q-141 0 -141 -80q0 -33 29 -49t112 -33q134 -26 207.5 -44t112 -31.5t59.5 -28.5t52 -46q79 -81 79 -204q0 -112 -54 -190.5t-143 -116.5q-88 -40 -192 -40 q-153 0 -266 74v-60h-234v378h234q19 -71 45 -109.5t67 -53.5q42 -16 111 -16q53 0 104 31q52 30 52 72q0 33 -37 64q-22 17 -61 22.5t-121.5 16.5t-135.5 25q-123 33 -207 109q-84 77 -84 197z" />
<glyph unicode="t" horiz-adv-x="635" d="M4 807v236h123v133l309 282v-415h185v-236h-176v-407q0 -62 7 -93q8 -37 29 -47t54 -10q44 0 96 37v-262q-117 -50 -223 -50q-100 0 -161.5 31.5t-90.5 97.5t-29 175v528h-123z" />
<glyph unicode="u" horiz-adv-x="1180" d="M13 807h139v-487q0 -164 71.5 -250.5t208.5 -86.5q145 0 281 128v-111h459v234h-140v809h-456v-236h137v-471q-76 -74 -158 -74q-56 0 -81 39.5t-25 130.5v611h-436v-236z" />
<glyph unicode="v" horiz-adv-x="1133" d="M-8 807h123l313 -807h285l311 807h125v236h-492v-236h115l-176 -528l-155 528h112v236h-561v-236z" />
<glyph unicode="w" horiz-adv-x="1678" d="M-4 807h123l250 -807h305l180 717l166 -717h297l246 807h127v236h-471v-236h111l-117 -459l-172 695h-320l-182 -695l-107 459h107v236h-543v-236z" />
<glyph unicode="x" horiz-adv-x="1094" d="M12 0h301l222 312l221 -312h321v234h-110l-246 301l246 272h110v236h-309l-213 -295l-190 295h-353v-236h125l219 -299l-233 -274h-111v-234z" />
<glyph unicode="y" horiz-adv-x="1133" d="M0 807v236h545v-236h-100l159 -471l173 471h-111v236h475v-236h-129l-459 -1223h-373v233h211l78 191l-346 799h-123z" />
<glyph unicode="z" horiz-adv-x="957" d="M4 0h951v361h-213v-158h-381l594 625v215h-904v-353h207v150h339l-593 -623v-217z" />
<glyph unicode="&#xa1;" horiz-adv-x="453" d="M43 0h326l-4 381l-68 578h-164l-90 -602v-357zM51 1129h328v356h-328v-356z" />
<glyph unicode="&#xa2;" d="M21 510q0 -136 60 -244t164.5 -176t236.5 -94v-170h118v170q110 11 184 43q75 31 135 93.5t126 172.5l-234 111l-18 -33q-52 -74 -100 -105.5t-117 -31.5q-116 0 -180 83q-63 82 -63 196t63 198q64 84 176 84q168 0 217 -184h223v411h-201v-88q-59 49 -98 68.5t-113 36.5 v158h-118v-158q-134 -14 -239 -89q-105 -74 -163.5 -193.5t-58.5 -258.5z" />
<glyph unicode="&#xa3;" horiz-adv-x="1094" d="M4 230q0 -114 67 -180.5t177 -66.5q82 0 136 28.5t118 107.5l41 -31q82 -66 141 -91.5t135 -25.5q279 0 279 390v88l-135 18l-2 -51q-9 -186 -154 -186q-53 0 -93 14q-40 15 -89 53l-20 10q33 111 33 189q0 41 -6 78l-3 57v14h238v190h-287q-15 41 -53 116 q-39 76 -58.5 129t-19.5 108q0 154 155 154q82 0 125 -55t52 -173l260 29q-6 87 -24.5 140t-59.5 100q-59 72 -154 109.5t-205 37.5q-114 0 -215.5 -41t-164.5 -123q-62 -81 -62 -194q0 -121 98 -316l12 -21h-208v-190h303q21 -42 32 -99.5t11 -104.5q-76 36 -154 36 q-105 0 -175.5 -63.5t-70.5 -183.5zM150 246q0 82 63 82q35 0 79.5 -21.5t72.5 -44.5q-21 -120 -121 -120q-44 0 -69 28t-25 76z" />
<glyph unicode="&#xa7;" horiz-adv-x="996" d="M4 565q0 -91 39.5 -163t102.5 -125t116 -83q52 -29 191 -102q103 -59 145 -108t42 -113q0 -79 -36 -123q-35 -43 -102 -43q-129 0 -129 203h-315v-37q0 -120 60 -205q61 -85 159 -128q99 -42 213 -42q88 0 171 25q83 26 149.5 76t106.5 124q38 74 38 168q0 120 -70 212 l-14 18q-9 10 -12 14q61 76 91 125t42 95t12 112q0 121 -56 211.5t-176 163.5l-184 106q-103 61 -150 115t-47 115q0 62 38 102.5t93 40.5q67 0 96 -48.5t40 -168.5h281v12q0 92 -36 167q-36 76 -97 127t-140.5 78.5t-167.5 27.5q-126 0 -224.5 -47t-153 -130t-54.5 -190 q0 -66 25 -121.5t85 -122.5q-99 -98 -135.5 -169.5t-36.5 -168.5zM285 600q0 60 76 135q40 -21 90 -50q51 -30 76 -44q77 -42 137 -101q60 -58 60 -118q0 -62 -66 -110q-230 114 -332 202q-41 41 -41 86z" />
<glyph unicode="&#xa8;" horiz-adv-x="223" d="M-361 1315q0 -66 39.5 -113t112.5 -47q75 0 118.5 49.5t43.5 114.5q0 67 -41 114q-42 48 -117 48q-73 0 -114 -51q-42 -50 -42 -115zM55 1311q0 -66 41.5 -115t114.5 -49q74 0 116 50.5t42 119.5q0 66 -40 114t-114 48q-73 0 -116.5 -51t-43.5 -117z" />
<glyph unicode="&#xab;" d="M-17 549l351 -506h301l-349 510l353 490h-297zM403 535l339 -492h313l-348 506l354 494h-293z" />
<glyph unicode="&#xad;" horiz-adv-x="588" d="M13 412h555v278h-555v-278z" />
<glyph unicode="&#xb4;" horiz-adv-x="223" d="M-164 1168h201l305 342h-289z" />
<glyph unicode="&#xb6;" horiz-adv-x="1133" d="M70 1121q0 -121 61 -199.5t163 -113.5q103 -36 228 -36v-178v-1039h50v826v1036h217v-823v-1039h51v826v1036h270v58h-575q-117 0 -223 -36.5t-174 -116.5t-68 -201z" />
<glyph unicode="&#xb7;" horiz-adv-x="453" d="M49 740q0 -74 45 -128.5t125 -54.5q86 0 134 56q49 56 49 131q0 74 -47.5 128t-131.5 54q-82 0 -128 -55t-46 -131z" />
<glyph unicode="&#xb8;" horiz-adv-x="223" d="M-293 -344q136 -148 326 -148q66 0 123.5 29.5t92 79t34.5 104.5q0 62 -33 104t-86 62q-53 21 -110 21l49 129h-169l-84 -215l23 -17q27 12 67 12q54 0 96.5 -24.5t42.5 -71.5q0 -34 -26 -54q-25 -20 -70 -20q-38 0 -73 14.5t-115 63.5z" />
<glyph unicode="&#xbb;" d="M-17 43h295l365 506l-334 494h-314l351 -508zM407 43h295l359 492l-350 508h-296l353 -512z" />
<glyph unicode="&#xbf;" horiz-adv-x="996" d="M13 428q0 -104 33.5 -187.5t97.5 -140t156.5 -87t209.5 -30.5q130 0 242 45q111 43 178 121q43 58 62 120q17 62 20 167h-299q-8 -131 -47.5 -180.5t-134.5 -49.5q-94 0 -145 52.5t-51 141.5q0 90 57 143q58 53 141 53q47 0 92 -18l29 -13l-7 416h-165l-23 -141 q-126 -13 -191.5 -32.5t-115.5 -63.5q-65 -48 -102 -133t-37 -183zM404 1151h330l-1 355h-329v-355z" />
<glyph unicode="&#xc0;" horiz-adv-x="1592" d="M13 0h673v237h-168l74 267h424l61 -267h-172v-237h674v237h-135l-311 994h176v244h-1008v-244h181l-330 -994h-139v-237zM469 1866l307 -342h195l-203 342h-299zM652 707l155 569l150 -569h-305z" />
<glyph unicode="&#xc1;" horiz-adv-x="1592" d="M13 0h673v237h-168l74 267h424l61 -267h-172v-237h674v237h-135l-311 994h176v244h-1008v-244h181l-330 -994h-139v-237zM613 1524h198l307 346h-286zM652 707l155 569l150 -569h-305z" />
<glyph unicode="&#xc2;" horiz-adv-x="1592" d="M13 0h673v237h-168l74 267h424l61 -267h-172v-237h674v237h-135l-311 994h176v244h-1008v-244h181l-330 -994h-139v-237zM469 1522h221l86 178l86 -178h215l-210 344h-185zM652 707l155 569l150 -569h-305z" />
<glyph unicode="&#xc3;" horiz-adv-x="1592" d="M13 0h673v237h-168l74 267h424l61 -267h-172v-237h674v237h-135l-311 994h176v243h-1008v-243h181l-330 -994h-139v-237zM353 1676l116 -152l13 8q72 55 149 55q14 0 51 -4l78 -20q81 -21 139 -21q149 0 242 107l-113 158q-75 -64 -153 -64q-54 0 -119 27q-63 28 -135 28 q-146 0 -268 -122zM652 707l155 569l150 -569h-305z" />
<glyph unicode="&#xc4;" horiz-adv-x="1592" d="M13 0h673v237h-168l74 267h424l61 -267h-172v-237h674v237h-135l-311 994h176v244h-1008v-244h181l-330 -994h-139v-237zM410 1673q0 -65 40 -112t113 -47q75 0 117.5 49t42.5 117q0 41 -17.5 78t-53 60t-84.5 23q-74 0 -116 -50.5t-42 -117.5zM652 707l155 569l150 -569 h-305zM836 1671q0 -66 41 -113.5t114 -47.5q76 0 118 47.5t42 113.5t-42.5 116t-117.5 50q-73 0 -114 -49.5t-41 -116.5z" />
<glyph unicode="&#xc5;" horiz-adv-x="1592" d="M13 0h673v237h-168l74 267h424l61 -267h-172v-237h674v237h-135l-311 994h176v244h-1008v-244h181l-330 -994h-139v-237zM600 1657q0 -91 54 -157t153 -66q100 0 154.5 65t54.5 156q0 58 -24 109t-71.5 82.5t-113.5 31.5q-98 0 -152.5 -66t-54.5 -155zM652 707l155 569 l150 -569h-305zM715 1655q0 39 24.5 66.5t67.5 27.5t65.5 -26.5t22.5 -65.5q0 -40 -25 -70t-67 -30q-40 0 -64 29t-24 69z" />
<glyph unicode="&#xc6;" horiz-adv-x="1954" d="M-8 0h608v238h-159l151 393h334v-393h-158v-238h162h1024v471h-272v-238h-408v398h343v234h-343v370h404v-234l268 1v473h-582h-1022v-244h201l-410 -993h-141v-238zM674 843l166 404h86v-404h-252z" />
<glyph unicode="&#xc7;" horiz-adv-x="1456" d="M17 744q0 -208 73 -370t212 -263t334 -132l-60 -157l28 -17q22 8 60 8q57 -1 100 -24q44 -23 44 -68q0 -34 -26 -54t-71 -20q-40 0 -73 14t-116 64l-85 -69q132 -148 327 -148q65 0 121 29.5t89.5 78.5t33.5 105q0 62 -30.5 104t-81.5 62q-50 21 -107 21l19 59 q129 5 235 43q107 37 191 104.5t141.5 162t87.5 215.5l-275 135q-52 -204 -144 -297q-92 -92 -237 -92q-93 0 -167 32.5t-124.5 96t-77 155t-26.5 205.5q0 163 45.5 285t132.5 187t205 65q262 0 364 -297h245l-1 518h-227v-115q-59 57 -118 90q-58 33 -127.5 48.5 t-162.5 15.5q-166 0 -305 -55t-239 -159t-153 -249q-54 -144 -54 -317z" />
<glyph unicode="&#xc8;" horiz-adv-x="1227" d="M8 0h181h1024v471h-267v-238h-408v398h343v237h-343v367h408v-234l267 1v473h-181h-1024v-244h160v-993h-160v-238zM309 1866l308 -342h194l-202 342h-300z" />
<glyph unicode="&#xc9;" horiz-adv-x="1227" d="M8 0h181h1024v471h-267v-238h-408v398h343v237h-343v367h408v-234l267 1v473h-181h-1024v-244h160v-993h-160v-238zM453 1524h199l305 346h-287z" />
<glyph unicode="&#xca;" horiz-adv-x="1227" d="M8 0h181h1024v471h-267v-238h-408v398h343v237h-343v367h408v-234l267 1v473h-181h-1024v-244h160v-993h-160v-238zM309 1522h222l86 178l86 -178h215l-211 344h-185z" />
<glyph unicode="&#xcb;" horiz-adv-x="1227" d="M8 0h181h1024v471h-267v-238h-408v398h343v237h-343v367h408v-234l267 1v473h-181h-1024v-244h160v-993h-160v-238zM250 1673q0 -65 40 -112t114 -47t115.5 48.5t41.5 117.5q0 65 -40 113t-113 48q-74 0 -116 -50.5t-42 -117.5zM674 1671q0 -66 42 -113.5t116 -47.5 q75 0 116 47t41 114t-42 116.5t-115 49.5q-74 0 -116 -50t-42 -116z" />
<glyph unicode="&#xcc;" horiz-adv-x="682" d="M-4 0h694v238h-163v993h163v244h-694v-244h160v-993h-160v-238zM37 1866l305 -342h197l-205 342h-297z" />
<glyph unicode="&#xcd;" horiz-adv-x="682" d="M-4 0h694v238h-163v993h163v244h-694v-244h160v-993h-160v-238zM176 1524h201l305 346h-286z" />
<glyph unicode="&#xce;" horiz-adv-x="682" d="M-4 0h694v238h-163v993h163v244h-694v-244h160v-993h-160v-238zM37 1522h221l84 178l90 -178h215l-211 344h-188z" />
<glyph unicode="&#xcf;" horiz-adv-x="682" d="M-21 1673q0 -65 41 -112t113 -47q75 0 116.5 49t41.5 117q0 65 -40 113t-114 48q-72 0 -115 -51t-43 -117zM-4 0h694v238h-163v993h163v244h-694v-244h160v-993h-160v-238zM401 1671q0 -66 41 -113.5t113 -47.5q76 0 118 47.5t42 113.5t-42.5 116t-117.5 50 q-72 0 -112 -49q-42 -50 -42 -117z" />
<glyph unicode="&#xd1;" horiz-adv-x="1501" d="M4 0v238h160v993h-160v244h572l518 -987v743h-156v244h568v-244h-164v-1231h-330l-600 1141v-903h156v-238h-564zM335 1676q114 124 261 124q67 0 137 -30q66 -29 121 -29q73 0 150 66l115 -158q-91 -107 -242 -107q-63 0 -144 21q-85 24 -124 24q-82 0 -160 -63z" />
<glyph unicode="&#xd2;" horiz-adv-x="1592" d="M16 727q0 -171 55 -313q55 -141 156 -243q102 -102 244.5 -157t313.5 -55q176 0 321 55q146 54 250 157.5t159.5 248.5t55.5 320q0 172 -55 316t-158 247t-246 160q-144 55 -317 55q-171 0 -314.5 -57t-247.5 -163q-104 -105 -160.5 -251t-56.5 -320zM405 742 q0 132 45 249q46 117 135 189t214 72q86 0 156.5 -37t120.5 -105t77 -163t27 -212q0 -119 -25 -215q-26 -95 -74.5 -162t-118 -102t-159.5 -35q-125 0 -215.5 74t-136.5 194t-46 253zM489 1866l306 -342h196l-202 342h-300z" />
<glyph unicode="&#xd3;" horiz-adv-x="1592" d="M16 727q0 -171 55 -313q55 -141 156 -243q102 -102 244.5 -157t313.5 -55q176 0 321 55q146 54 250 157.5t159.5 248.5t55.5 320q0 172 -55 316t-158 247t-246 160q-144 55 -317 55q-171 0 -314.5 -57t-247.5 -163q-104 -105 -160.5 -251t-56.5 -320zM405 742 q0 132 45 249q46 117 135 189t214 72q86 0 156.5 -37t120.5 -105t77 -163t27 -212q0 -119 -25 -215q-26 -95 -74.5 -162t-118 -102t-159.5 -35q-125 0 -215.5 74t-136.5 194t-46 253zM631 1524h201l305 346h-285z" />
<glyph unicode="&#xd4;" horiz-adv-x="1592" d="M16 727q0 -171 55 -313q55 -141 156 -243q102 -102 244.5 -157t313.5 -55q176 0 321 55q146 54 250 157.5t159.5 248.5t55.5 320q0 172 -55 316t-158 247t-246 160q-144 55 -317 55q-171 0 -314.5 -57t-247.5 -163q-104 -105 -160.5 -251t-56.5 -320zM405 742 q0 132 45 249q46 117 135 189t214 72q86 0 156.5 -37t120.5 -105t77 -163t27 -212q0 -119 -25 -215q-26 -95 -74.5 -162t-118 -102t-159.5 -35q-125 0 -215.5 74t-136.5 194t-46 253zM489 1522h222l84 178l86 -178h221l-217 344h-182z" />
<glyph unicode="&#xd5;" horiz-adv-x="1592" d="M16 727q0 -171 55 -313q55 -141 156 -243q102 -102 244.5 -157t313.5 -55q176 0 321 55q146 54 250 157.5t159.5 248.5t55.5 320q0 172 -55 316t-158 247t-246.5 158.5t-316.5 55.5q-171 0 -314 -57q-144 -56 -248 -162q-104 -105 -160.5 -251t-56.5 -320zM372 1676 l118 -153l12 9q72 55 150 55q14 0 51 -4l78 -20q75 -23 141 -23q148 0 237 109l-112 158q-75 -64 -152 -64q-57 0 -119 27q-62 28 -135 28q-145 0 -269 -122zM405 742q0 132 45 249q46 117 135 189t214 72q86 0 156.5 -37t120.5 -105t77 -163t27 -212q0 -119 -25 -215 q-26 -95 -74.5 -162t-118 -102t-159.5 -35q-125 0 -215.5 74t-136.5 194t-46 253z" />
<glyph unicode="&#xd6;" horiz-adv-x="1592" d="M17 727q0 -171 54 -313q55 -141 156 -243q102 -102 244.5 -157t313.5 -55q176 0 321 55q146 54 250 157.5t159.5 248.5t55.5 320q0 172 -55 316t-158 247t-246.5 159t-316.5 56q-171 0 -314.5 -57t-247.5 -163q-104 -105 -160 -251t-56 -320zM406 742q0 132 45 249 t134 189t214 72q86 0 156.5 -37t120.5 -105t77 -163t27 -212q0 -119 -25 -215q-26 -95 -74.5 -162t-118 -102t-159.5 -35q-125 0 -215.5 74t-136 194t-45.5 253zM432 1673q0 -66 40.5 -112.5t115.5 -46.5q73 0 114.5 49t41.5 117q0 64 -40.5 112.5t-111.5 48.5 q-74 0 -117 -50.5t-43 -117.5zM856 1671q0 -66 41 -113.5t115 -47.5t115 47q41 48 41 114q0 67 -41 116.5t-115 49.5q-73 0 -114.5 -50t-41.5 -116z" />
<glyph unicode="&#xd8;" horiz-adv-x="1592" d="M16 731q0 -189 61.5 -332t192.5 -270l-94 -121l103 -76l94 124q165 -97 420 -97q173 0 317 55.5t248 158.5q103 104 158 247t55 315q0 388 -258 607l98 137l-98 65l-100 -135q-194 109 -418 109q-171 0 -314.5 -57t-247.5 -162q-103 -105 -160 -250.5t-57 -317.5z M413 754q0 133 40 245.5t126 182.5t216 70q138 0 233 -93l-546 -739q-69 146 -69 334zM559 316l551 741q70 -143 70 -336q0 -131 -40 -245t-125 -184.5t-212 -70.5q-73 0 -128 21t-116 74z" />
<glyph unicode="&#xd9;" horiz-adv-x="1364" d="M8 1231h164v-766q0 -197 64 -307q56 -94 183 -149.5t284 -55.5q89 0 169 20q79 21 144 61t107 95q37 53 53 133t16 209v760h168v244h-536v-244h131v-756q0 -99 -19 -155t-64 -79q-44 -24 -122 -24q-82 0 -127.5 23.5t-64.5 79.5t-19 155v756h131v244h-662v-244zM377 1866 l305 -342h197l-205 342h-297z" />
<glyph unicode="&#xda;" horiz-adv-x="1364" d="M8 1231h164v-766q0 -197 64 -307q56 -94 183 -149.5t284 -55.5q89 0 169 20q79 21 144 61t107 95q37 53 53 133t16 209v760h168v244h-536v-244h131v-756q0 -99 -19 -155t-64 -79q-44 -24 -122 -24q-82 0 -127.5 23.5t-64.5 79.5t-19 155v756h131v244h-662v-244zM518 1524 h199l307 346h-286z" />
<glyph unicode="&#xdb;" horiz-adv-x="1364" d="M8 1231h164v-766q0 -197 64 -307q56 -94 183 -149.5t284 -55.5q89 0 169 20q79 21 144 61t107 95q37 53 53 133t16 209v760h168v244h-536v-244h131v-756q0 -99 -19 -155t-64 -79q-44 -24 -122 -24q-82 0 -127.5 23.5t-64.5 79.5t-19 155v756h131v244h-662v-244zM377 1522 h223l82 178l90 -178h215l-211 344h-184z" />
<glyph unicode="&#xdc;" horiz-adv-x="1364" d="M8 1231h164v-766q0 -197 64 -307q56 -94 183 -149.5t284 -55.5q89 0 169 20q79 21 144 61t107 95q37 53 53 133t16 209v760h168v244h-536v-244h131v-756q0 -99 -19 -155t-64 -79q-44 -24 -122 -24q-82 0 -127.5 23.5t-64.5 79.5t-19 155v756h131v244h-662v-244zM318 1673 q0 -65 40.5 -112t114.5 -47q75 0 117.5 49t42.5 117q0 41 -17.5 78t-53.5 60q-35 23 -85 23q-73 0 -116 -51t-43 -117zM744 1671q0 -66 40 -113q41 -48 113 -48q75 0 116.5 47t41.5 114t-42 116.5t-116 49.5q-72 0 -112.5 -49.5t-40.5 -116.5z" />
<glyph unicode="&#xdd;" horiz-adv-x="1364" d="M-4 1231h127l363 -657v-336h-185v-238h746v238h-185v336l365 657h145v244h-565v-244h119l-209 -375l-182 375h108v244h-647v-244zM518 1524h199l307 346h-286z" />
<glyph unicode="&#xdf;" horiz-adv-x="1133" d="M-4 0h445v25v1032q0 236 151 236q61 0 99 -44q38 -43 38 -112q0 -89 -34 -119q-36 -31 -145 -37v-250q149 0 188 -20q90 -45 90 -215q0 -112 -56 -171q-55 -59 -153 -59q-10 0 -47 4v-257q53 -13 127 -13q211 0 319.5 125.5t108.5 374.5q0 160 -61.5 255t-198.5 148 q76 53 106 110q31 56 31 146q0 112 -56 192q-55 79 -147 118t-199 39q-115 0 -222 -46q-106 -46 -172 -134t-66 -207v-166h-146v-238h146v-476h-146v-241z" />
<glyph unicode="&#xe0;" horiz-adv-x="1094" d="M17 307q0 -102 46.5 -173.5t124 -107.5t167.5 -36q174 0 292 111v-101h435v234h-135l-1 483q0 168 -113.5 256t-330.5 88q-123 0 -209.5 -25.5t-148.5 -82.5t-110 -152l245 -49q70 98 184 98q76 0 130 -50q55 -50 55 -138l-1 -68q-100 36 -146 45.5t-105 9.5 q-110 0 -196.5 -43t-134.5 -121t-48 -178zM240 1506l305 -338h197l-203 338h-299zM326 316q0 57 36 101q37 44 99 44q40 0 73.5 -13.5t109.5 -60.5v-92q-104 -100 -199 -100q-58 0 -88 35q-31 36 -31 86z" />
<glyph unicode="&#xe1;" horiz-adv-x="1094" d="M17 307q0 -102 46.5 -173.5t124 -107.5t167.5 -36q174 0 292 111v-101h435v234h-135l-1 483q0 168 -113.5 256t-330.5 88q-123 0 -209.5 -25.5t-148.5 -82.5t-110 -152l245 -49q70 98 184 98q76 0 130 -50q55 -50 55 -138l-1 -68q-100 36 -146 45.5t-105 9.5 q-110 0 -196.5 -43t-134.5 -121t-48 -178zM326 316q0 57 36 101q37 44 99 44q40 0 73.5 -13.5t109.5 -60.5v-92q-104 -100 -199 -100q-58 0 -88 35q-31 36 -31 86zM380 1168h200l305 342h-281z" />
<glyph unicode="&#xe2;" horiz-adv-x="1094" d="M17 307q0 -102 46.5 -173.5t124 -107.5t167.5 -36q174 0 292 111v-101h435v234h-135l-1 483q0 168 -113.5 256t-330.5 88q-123 0 -209.5 -25.5t-148.5 -82.5t-110 -152l245 -49q70 98 184 98q76 0 130 -50q55 -50 55 -138l-1 -68q-100 36 -146 45.5t-105 9.5 q-110 0 -196.5 -43t-134.5 -121t-48 -178zM240 1159h222l83 179l90 -179h218l-214 347h-184zM326 316q0 57 36 101q37 44 99 44q40 0 73.5 -13.5t109.5 -60.5v-92q-104 -100 -199 -100q-58 0 -88 35q-31 36 -31 86z" />
<glyph unicode="&#xe3;" horiz-adv-x="1094" d="M17 307q0 -102 46.5 -173.5t124 -107.5t167.5 -36q174 0 292 111v-101h435v234h-135l-1 483q0 168 -113.5 256t-330.5 88q-123 0 -209.5 -25.5t-148.5 -82.5t-110 -152l245 -49q70 98 184 98q76 0 130 -50q55 -50 55 -138l-1 -68q-100 36 -146 45.5t-105 9.5 q-110 0 -196.5 -43t-134.5 -121t-48 -178zM128 1319l112 -151l14 8q84 57 152 57q30 0 49 -8l76 -21q84 -18 145 -18q148 0 234 102l-111 162q-53 -42 -83 -57q-29 -14 -64 -14q-36 0 -125 30q-73 33 -142 33q-137 0 -257 -123zM326 316q0 57 36 101q37 44 99 44 q40 0 73.5 -13.5t109.5 -60.5v-92q-104 -100 -199 -100q-58 0 -88 35q-31 36 -31 86z" />
<glyph unicode="&#xe4;" horiz-adv-x="1094" d="M17 307q0 -102 46.5 -173.5t124 -107.5t167.5 -36q174 0 292 111v-101h435v234h-136v483q0 168 -113.5 256t-330.5 88q-123 0 -209.5 -25.5t-148.5 -82.5t-111 -152l246 -49q70 98 184 98q76 0 130 -50t54 -138v-68q-100 36 -146 45.5t-105 9.5q-110 0 -196.5 -43 t-134.5 -121t-48 -178zM180 1315q0 -65 41.5 -112.5t116.5 -47.5q74 0 115 49t41 115q0 68 -40 115q-39 47 -112 47q-75 0 -118.5 -50t-43.5 -116zM326 316q0 57 36 101q37 44 99 44q40 0 73.5 -13.5t108.5 -60.5v-92q-103 -100 -198 -100q-58 0 -88 35q-31 36 -31 86z M606 1313q0 -68 41.5 -117t116.5 -49q74 0 116 49t42 117q0 67 -42 116q-42 50 -116 50q-73 0 -115.5 -50t-42.5 -116z" />
<glyph unicode="&#xe5;" horiz-adv-x="1094" d="M17 307q0 -102 46.5 -173.5t124 -107.5t167.5 -36q174 0 292 111v-101h435v234h-135l-1 483q0 168 -113.5 256t-330.5 88q-123 0 -209.5 -25.5t-148.5 -82.5t-110 -152l245 -49q70 98 184 98q76 0 130 -50q55 -50 55 -138l-1 -68q-100 36 -146 45.5t-105 9.5 q-110 0 -196.5 -43t-134.5 -121t-48 -178zM326 316q0 57 36 101q37 44 99 44q40 0 73.5 -13.5t109.5 -60.5v-92q-104 -100 -199 -100q-58 0 -88 35q-31 36 -31 86zM367 1299q0 -93 55.5 -159.5t153.5 -66.5q68 0 116 31.5t73 82.5q24 52 24 112q0 57 -24 108.5t-73 82.5 q-48 32 -116 32q-97 0 -153 -67t-56 -156zM486 1295q0 38 24 67q25 29 66 29q45 0 69 -27q23 -26 23 -63q0 -40 -26 -70q-25 -31 -70 -31q-40 0 -63 28t-23 67z" />
<glyph unicode="&#xe6;" horiz-adv-x="1639" d="M4 312q0 -74 25 -136q25 -61 72.5 -105.5t113 -68t142.5 -23.5q69 0 124.5 15t116 50t148.5 102q53 -53 122 -91q69 -37 148 -58q79 -20 156 -20q150 0 272 73q122 71 177 212l-238 74q-52 -71 -99 -97q-46 -27 -120 -27q-105 0 -166 69t-67 194h702q-3 114 -15.5 182 t-46.5 132q-38 89 -105 151q-66 63 -149.5 94t-173.5 31q-178 0 -319 -110q-69 54 -169 84q-99 30 -206 30q-150 0 -269.5 -62.5t-166.5 -187.5l241 -63q45 62 81 83t101 21q199 0 199 -274q-105 78 -244 78q-100 0 -189 -43q-89 -42 -143.5 -122.5t-54.5 -186.5zM312 326 q0 58 37 102q38 43 104 43q41 0 79 -17.5t99 -66.5v-100q-55 -53 -95.5 -74.5t-86.5 -21.5q-66 0 -101.5 40t-35.5 95zM939 649q6 98 55 151q50 52 137 52q164 0 183 -203h-375z" />
<glyph unicode="&#xe7;" d="M13 535q0 -100 30 -190.5t85.5 -161t135.5 -118.5t177 -69l-72 -174l27 -17q30 10 63 10q59 0 102 -23q44 -24 44 -71q0 -31 -28 -50t-71 -19q-40 0 -73 12t-119 61l-90 -69q138 -148 329 -148q67 0 125 29.5t92 79t34 104.5q0 93 -68 140q-67 47 -160 47l33 75 q336 26 438 341l-252 112q-46 -101 -98 -143.5t-134 -42.5q-104 0 -162 77.5t-58 184.5q0 73 27 138q27 66 81 106q54 41 129 41q85 0 140 -42.5t91 -131.5h218l-1 432h-221v-84q-75 54 -136 74t-149 20q-144 0 -261 -68.5t-182.5 -189.5t-65.5 -272z" />
<glyph unicode="&#xe8;" d="M16 508q0 -121 36.5 -220t105.5 -170t167 -108q97 -39 214 -39q173 0 293.5 71t187.5 216l-260 83q-46 -74 -93 -103q-47 -31 -118 -31q-61 0 -110 29q-49 30 -80 85q-31 56 -42 132h711v62q0 127 -35 229.5t-100 175t-156.5 111t-201.5 38.5q-150 0 -268 -71.5 t-184.5 -199.5t-66.5 -290zM215 1506l307 -338h195l-207 338h-295zM325 635q7 91 60 146q51 55 133 55t133 -54.5t60 -146.5h-386z" />
<glyph unicode="&#xe9;" d="M16 508q0 -121 36.5 -220t105.5 -170t167 -108q97 -39 214 -39q173 0 293.5 71t187.5 216l-260 83q-46 -74 -93 -103q-47 -31 -118 -31q-61 0 -110 29q-49 30 -80 85q-31 56 -42 132h711v62q0 127 -35 229.5t-100 175t-156.5 111t-201.5 38.5q-150 0 -268 -71.5 t-184.5 -199.5t-66.5 -290zM325 635q7 91 60 146q51 55 133 55t133 -54.5t60 -146.5h-386zM352 1168h203l307 342h-286z" />
<glyph unicode="&#xea;" d="M16 508q0 -121 36.5 -220t105.5 -170t167 -108q97 -39 214 -39q173 0 293.5 71t187.5 216l-260 83q-46 -74 -93 -103q-47 -31 -118 -31q-61 0 -110 29q-49 30 -80 85q-31 56 -42 132h711v62q0 127 -35 229.5t-100 175t-156.5 111t-201.5 38.5q-150 0 -268 -71.5 t-184.5 -199.5t-66.5 -290zM215 1159h221l86 179l87 -179h215l-211 347h-185zM325 635q7 91 60 146q51 55 133 55t133 -54.5t60 -146.5h-386z" />
<glyph unicode="&#xeb;" d="M17 508q0 -121 36 -220t105 -170t167 -108q97 -39 214 -39q173 0 293.5 71t187.5 216l-260 83q-46 -74 -93 -103q-47 -31 -118 -31q-61 0 -110 29q-49 30 -80 85q-31 56 -41 132h710v62q0 127 -35 229.5t-100 175t-156.5 111t-201.5 38.5q-150 0 -268 -71.5t-184 -199.5 t-66 -290zM156 1315q0 -64 40 -112q41 -48 113 -48q75 0 116.5 49.5t41.5 114.5q0 68 -40 115t-113 47q-72 0 -115 -50t-43 -116zM326 635q7 91 58.5 146t133.5 55t133 -54.5t60 -146.5h-385zM577 1311q0 -66 41.5 -115t114.5 -49q75 0 116.5 51t41.5 119q0 65 -40 113.5 t-113 48.5q-74 0 -117.5 -51t-43.5 -117z" />
<glyph unicode="&#xec;" horiz-adv-x="588" d="M-8 1506l305 -338h197l-207 338h-295zM0 807h152v-573h-148v-234h588v234h-137v809h-455v-236z" />
<glyph unicode="&#xed;" horiz-adv-x="588" d="M0 807h152v-573h-148v-234h588v234h-137v809h-455v-236zM129 1168h205l305 342h-286z" />
<glyph unicode="&#xee;" horiz-adv-x="588" d="M-8 1159h217l88 179l82 -179h221l-217 347h-182zM0 807h152v-573h-148v-234h588v234l-137 -1v809h-455v-235z" />
<glyph unicode="&#xef;" horiz-adv-x="588" d="M-64 1315q0 -64 39.5 -112t110.5 -48q73 0 114 49q42 49 42 115q0 67 -40.5 114.5t-111.5 47.5q-72 0 -113 -50t-41 -116zM0 807h152v-573h-148v-234h588v234l-137 -1v809h-455v-235zM353 1311q0 -66 42 -115t115 -49q74 0 115 50.5t41 119.5q0 66 -40 114t-112 48 q-75 0 -118 -51t-43 -117z" />
<glyph unicode="&#xf1;" horiz-adv-x="1180" d="M13 0v234h136v573h-136v236h452v-117q140 131 291 131q128 0 202 -82.5t74 -230.5v-510h140v-234h-443v654q0 122 -100 122q-84 0 -164 -69v-473h139v-234h-591zM168 1319q133 125 262 125q64 0 138 -35q78 -26 124 -26q73 0 152 67l113 -162q-92 -100 -242 -100 q-65 0 -143 16q-103 29 -121 29q-74 0 -164 -65z" />
<glyph unicode="&#xf2;" d="M8 514q0 -153 65 -275t181.5 -191t263.5 -69q145 0 264 71.5t187 197t68 279.5q0 149 -68 272.5t-186 194.5t-261 71t-260.5 -72t-185.5 -198t-68 -281zM215 1506l307 -338h195l-207 338h-295zM330 531q0 132 50 206t142 74q93 0 142 -78t49 -225q0 -274 -186 -274 q-197 0 -197 297z" />
<glyph unicode="&#xf3;" d="M8 514q0 -153 65 -275t181.5 -191t263.5 -69q145 0 264 71.5t187 197t68 279.5q0 149 -68 272.5t-186 194.5t-261 71t-260.5 -72t-185.5 -198t-68 -281zM330 531q0 132 50 206t142 74q93 0 142 -78t49 -225q0 -274 -186 -274q-197 0 -197 297zM353 1168h202l307 342h-286 z" />
<glyph unicode="&#xf4;" d="M8 514q0 -153 65 -275t181.5 -191t263.5 -69q145 0 264 71.5t187 197t68 279.5q0 149 -68 272.5t-186 194.5t-261 71t-260.5 -72t-185.5 -198t-68 -281zM215 1159h221l86 179l87 -179h215l-211 347h-185zM330 531q0 132 50 206t142 74q93 0 142 -78t49 -225 q0 -274 -186 -274q-197 0 -197 297z" />
<glyph unicode="&#xf5;" d="M8 514q0 -153 65 -275t181.5 -191t263.5 -69q145 0 264 71.5t187 197t68 279.5q0 149 -68 272.5t-186 194.5t-261 71t-260.5 -72t-185.5 -198t-68 -281zM103 1319l108 -151l12 8q92 57 156 57q29 0 53 -8l70 -21q75 -16 141 -16q151 0 238 100l-109 162q-85 -67 -153 -67 q-49 0 -117 26q-77 35 -141 35q-136 0 -258 -125zM330 531q0 132 50 206t142 74q93 0 142 -78t49 -225q0 -274 -186 -274q-197 0 -197 297z" />
<glyph unicode="&#xf6;" d="M8 514q0 -153 65 -275t181.5 -191t263.5 -69q145 0 264 71.5t187 197t68 279.5q0 149 -68 272.5t-186 194.5t-261 71t-260.5 -72t-185.5 -198t-68 -281zM156 1315q0 -64 40 -112q41 -48 113 -48q75 0 117 49.5t42 114.5q0 68 -41 115q-40 47 -113 47q-72 0 -115 -50 t-43 -116zM330 531q0 132 50 206t142 74q93 0 142 -78t49 -225q0 -274 -186 -274q-197 0 -197 297zM578 1311q0 -66 41 -115t114 -49q75 0 116.5 51t41.5 119q0 65 -40 113.5t-113 48.5q-74 0 -117 -51t-43 -117z" />
<glyph unicode="&#xf8;" d="M4 494q0 -207 133 -348l-90 -105l80 -66l84 97q134 -93 307 -93q151 0 269 78.5t181.5 207t63.5 268.5q0 202 -127 356l91 109l-78 67l-86 -102q-141 102 -305 102q-113 0 -210 -47q-96 -48 -167 -131t-108.5 -185.5t-37.5 -207.5zM332 545q0 266 190 266q84 0 130 -63 l-306 -357q-14 79 -14 154zM391 291l312 358q10 -67 10 -139q0 -276 -186 -276q-48 0 -76.5 12t-59.5 45z" />
<glyph unicode="&#xf9;" horiz-adv-x="1180" d="M13 807h139v-487q0 -164 71.5 -250.5t208.5 -86.5q145 0 281 128v-111h459v234h-140v809h-456v-236h137v-471q-76 -74 -158 -74q-56 0 -81 39.5t-25 130.5v611h-436v-236zM287 1506l305 -338h197l-209 338h-293z" />
<glyph unicode="&#xfa;" horiz-adv-x="1180" d="M13 807h139v-487q0 -164 71.5 -250.5t208.5 -86.5q145 0 281 128v-111h459v234h-140v809h-456v-236h137v-471q-76 -74 -158 -74q-56 0 -81 39.5t-25 130.5v611h-436v-236zM428 1168h201l305 342h-287z" />
<glyph unicode="&#xfb;" horiz-adv-x="1180" d="M13 807h139v-487q0 -164 71.5 -250.5t208.5 -86.5q145 0 281 128v-111h459v234l-140 -1v809h-456v-235h137v-471q-76 -74 -158 -74q-56 0 -81 39.5t-25 130.5v610h-436v-235zM287 1159h219l86 179l86 -179h215l-211 347h-184z" />
<glyph unicode="&#xfc;" horiz-adv-x="1180" d="M13 807h139v-487q0 -164 71.5 -250.5t208.5 -86.5q145 0 281 128v-111h459v234l-140 -1v809h-456v-235h137v-471q-76 -74 -158 -74q-56 0 -81 39.5t-25 130.5v610h-436v-235zM226 1315q0 -65 40 -112.5t113 -47.5q74 0 117 49.5t43 114.5q0 67 -41 114.5t-115 47.5 q-73 0 -115 -50t-42 -116zM652 1313q0 -67 40.5 -116.5t114.5 -49.5q76 0 117 48.5t41 117.5q0 67 -42 116q-42 50 -116 50q-73 0 -114 -50t-41 -116z" />
<glyph unicode="&#xfd;" horiz-adv-x="1133" d="M0 807h123l346 -799l-78 -191h-211v-233h373l76 190l383 1033h129v236h-476v-236h111l-172 -471l-159 471h100v236h-545v-236zM400 1168h209l301 342h-281z" />
<glyph unicode="&#xff;" horiz-adv-x="1133" d="M0 807h123l346 -799l-78 -191h-211v-233h373l75 190l384 1033h129v235h-476v-235h111l-172 -471l-159 471h100v235h-545v-235zM205 1315q0 -65 39.5 -112.5t112.5 -47.5t115 49t42 115q0 67 -40.5 114.5t-112.5 47.5q-74 0 -115 -50t-41 -116zM628 1311q0 -66 41.5 -115 t115.5 -49q75 0 116 49.5t41 118.5q0 66 -40.5 115t-112.5 49q-75 0 -117 -51q-44 -51 -44 -117z" />
<glyph unicode="&#x152;" horiz-adv-x="1954" d="M8 744q0 -190 49 -330.5t152 -239.5q105 -106 232 -142t297 -36q36 0 112 2q75 2 113 2h991v479h-272v-238h-408v400h347l-1 235h-346v367h404v-238l272 1v469h-987q-46 0 -139 7t-146 7q-150 0 -273 -52t-213 -151q-89 -99 -136.5 -236t-47.5 -306zM396 752 q0 153 45 265.5t130 171t201 58.5q35 0 146 -8v-998q-111 -7 -133 -7q-120 0 -208 62t-135 179q-46 116 -46 277z" />
<glyph unicode="&#x153;" horiz-adv-x="1725" d="M4 518q0 -152 65 -275q64 -122 178.5 -191t258.5 -69q95 0 180 28.5t172 91.5q81 -58 181 -89q101 -33 200 -33q154 0 281 73.5t190 216.5l-247 77q-48 -69 -97.5 -100.5t-118.5 -31.5q-65 0 -115.5 29.5t-80 84.5t-35.5 131h709v61q0 127 -34 230t-100 177 q-65 73 -157 111q-91 37 -207 37q-110 0 -181.5 -28t-178.5 -115q-75 57 -126.5 85.5t-100 39t-118.5 10.5q-147 0 -266 -71q-118 -72 -185 -197.5t-67 -282.5zM326 518q0 140 49.5 220.5t138.5 80.5q91 0 144 -80t53 -221q0 -135 -51.5 -208t-145.5 -73q-188 0 -188 281z M1020 641q9 95 62.5 149t136.5 54q81 0 131.5 -54t56.5 -149h-387z" />
<glyph unicode="&#x2c6;" horiz-adv-x="223" d="M-305 1159h219l86 179l86 -179h215l-211 347h-184z" />
<glyph unicode="&#x2dc;" horiz-adv-x="223" d="M-424 1319l119 -151l12 8q80 57 149 57q28 0 50 -8l77 -21q71 -18 142 -18q150 0 236 102l-113 162q-83 -65 -151 -65q-47 0 -118 24q-69 33 -139 33q-137 0 -264 -123z" />
<glyph unicode="&#x2000;" horiz-adv-x="939" />
<glyph unicode="&#x2001;" horiz-adv-x="1878" />
<glyph unicode="&#x2002;" horiz-adv-x="939" />
<glyph unicode="&#x2003;" horiz-adv-x="1878" />
<glyph unicode="&#x2004;" horiz-adv-x="626" />
<glyph unicode="&#x2005;" horiz-adv-x="469" />
<glyph unicode="&#x2006;" horiz-adv-x="313" />
<glyph unicode="&#x2007;" horiz-adv-x="313" />
<glyph unicode="&#x2008;" horiz-adv-x="234" />
<glyph unicode="&#x2009;" horiz-adv-x="375" />
<glyph unicode="&#x200a;" horiz-adv-x="104" />
<glyph unicode="&#x2010;" horiz-adv-x="588" d="M13 412h555v278h-555v-278z" />
<glyph unicode="&#x2011;" horiz-adv-x="588" d="M13 412h555v278h-555v-278z" />
<glyph unicode="&#x2012;" horiz-adv-x="588" d="M13 412h555v278h-555v-278z" />
<glyph unicode="&#x2013;" horiz-adv-x="1133" d="M8 408h95h1024v282h-90h-1029v-282z" />
<glyph unicode="&#x2014;" horiz-adv-x="1133" d="M8 408h95h1024v282h-90h-1029v-282z" />
<glyph unicode="&#x2018;" horiz-adv-x="361" d="M12 772h338v361h-149q0 116 28 153q29 37 121 43v160q-173 -6 -255.5 -88t-82.5 -250v-379z" />
<glyph unicode="&#x2019;" horiz-adv-x="361" d="M12 776h31q161 0 234 90.5t73 288.5v334h-338v-360h152q0 -93 -33 -142t-119 -61v-150z" />
<glyph unicode="&#x201c;" horiz-adv-x="772" d="M21 772h336v361h-152q0 76 12.5 115t44.5 56.5t95 24.5v160q-108 -3 -150.5 -15.5t-78.5 -51.5q-107 -84 -107 -297v-353zM416 772h334v361h-150q5 83 16 118q11 36 39 51q28 16 95 27v160q-107 -6 -154 -19.5t-82 -52.5q-98 -94 -98 -311v-334z" />
<glyph unicode="&#x201d;" horiz-adv-x="772" d="M17 772q132 13 188 36q57 23 96 81q56 86 56 299v297h-332v-352h143q8 -22 8 -45q0 -62 -47.5 -108t-111.5 -58v-150zM416 781h54q153 0 216.5 115t63.5 280v309h-334v-352h152q-3 -111 -33 -150.5t-119 -48.5v-153z" />
<glyph unicode="&#x201e;" horiz-adv-x="772" d="M17 -203v-154q105 3 154.5 18t99.5 56q48 53 67 125t19 201v310h-332v-353h143q0 -198 -151 -203zM416 0h152q-5 -80 -16.5 -117.5t-41.5 -55.5q-30 -17 -94 -26v-154h54q153 0 216.5 116.5t63.5 279.5v310h-334v-353z" />
<glyph unicode="&#x202f;" horiz-adv-x="375" />
<glyph unicode="&#x2039;" horiz-adv-x="635" d="M-17 547l367 -500h297l-350 488l350 516h-297z" />
<glyph unicode="&#x203a;" horiz-adv-x="635" d="M-16 43h279l389 504l-386 496h-274l351 -508z" />
<glyph unicode="&#x205f;" horiz-adv-x="469" />
<glyph unicode="&#x25fc;" d="M0 0v1045h1045v-1045h-1045z" />
</font>
</defs>
</svg>
